name rise49.5252peak65.1548fall88.8305.mot
datacolumns 19
datarows 33
range 14.74327700000000 14.79660300000000
endheader
time	ground_force1_vx	ground_force1_vy	ground_force1_vz	ground_force1_px	ground_force1_py	ground_force1_pz	ground_force2_vx	ground_force2_vy	ground_force2_vz	ground_force2_px	ground_force2_py	ground_force2_pz	ground_torque1_x	ground_torque1_y	ground_torque1_z	ground_torque2_x	ground_torque2_y	ground_torque2_z	
14.74327700000000	-0.48485400000000	687.05745600000000	47.21445100000000	0.26063400000000	0.00000000000000	0.11752300000000	0.00000000000000	0.00000000000000	0.00000000000000	0.00000000000000	0.00000000000000	0.00000000000000	0.00000000000000	25.16749600000000	0.00000000000000	0.00000000000000	0.00000000000000	0.00000000000000	
14.74493500000000	-1.07772300000000	687.74561200000005	47.24383100000000	0.25976500000000	0.00000000000000	0.11752700000000	0.00000000000000	0.00000000000000	0.00000000000000	0.00000000000000	0.00000000000000	0.00000000000000	0.00000000000000	25.26744400000000	0.00000000000000	0.00000000000000	0.00000000000000	0.00000000000000	
14.74660700000000	-1.68342500000000	688.48172399999999	47.27523800000000	0.25890700000000	0.00000000000000	0.11752900000000	0.00000000000000	0.00000000000000	0.00000000000000	0.00000000000000	0.00000000000000	0.00000000000000	0.00000000000000	25.37302400000000	0.00000000000000	0.00000000000000	0.00000000000000	0.00000000000000	
14.74827200000000	-2.30202800000000	689.26559699999996	47.30846000000000	0.25805900000000	0.00000000000000	0.11753000000000	0.00000000000000	0.00000000000000	0.00000000000000	0.00000000000000	0.00000000000000	0.00000000000000	0.00000000000000	25.48404800000000	0.00000000000000	0.00000000000000	0.00000000000000	0.00000000000000	
14.74993600000000	-2.93356200000000	690.09706800000004	47.34330900000000	0.25722200000000	0.00000000000000	0.11753000000000	0.00000000000000	0.00000000000000	0.00000000000000	0.00000000000000	0.00000000000000	0.00000000000000	0.00000000000000	25.60032600000000	0.00000000000000	0.00000000000000	0.00000000000000	0.00000000000000	
14.75161000000000	-3.57801400000000	690.97600599999998	47.37961400000000	0.25639300000000	0.00000000000000	0.11752900000000	0.00000000000000	0.00000000000000	0.00000000000000	0.00000000000000	0.00000000000000	0.00000000000000	0.00000000000000	25.72166700000000	0.00000000000000	0.00000000000000	0.00000000000000	0.00000000000000	
14.75327300000000	-4.23533200000000	691.90230599999995	47.41723000000000	0.25557100000000	0.00000000000000	0.11752700000000	0.00000000000000	0.00000000000000	0.00000000000000	0.00000000000000	0.00000000000000	0.00000000000000	0.00000000000000	25.84788400000000	0.00000000000000	0.00000000000000	0.00000000000000	0.00000000000000	
14.75494200000000	-4.90542200000000	692.87588900000003	47.45602900000000	0.25475700000000	0.00000000000000	0.11752300000000	0.00000000000000	0.00000000000000	0.00000000000000	0.00000000000000	0.00000000000000	0.00000000000000	0.00000000000000	25.97878400000000	0.00000000000000	0.00000000000000	0.00000000000000	0.00000000000000	
14.75660300000000	-5.58815200000000	693.89669300000003	47.49590700000000	0.25394800000000	0.00000000000000	0.11751900000000	0.00000000000000	0.00000000000000	0.00000000000000	0.00000000000000	0.00000000000000	0.00000000000000	0.00000000000000	26.11418100000000	0.00000000000000	0.00000000000000	0.00000000000000	0.00000000000000	
14.75827100000000	-6.28334500000000	694.96467099999995	47.53677800000000	0.25314500000000	0.00000000000000	0.11751300000000	0.00000000000000	0.00000000000000	0.00000000000000	0.00000000000000	0.00000000000000	0.00000000000000	0.00000000000000	26.25388500000000	0.00000000000000	0.00000000000000	0.00000000000000	0.00000000000000	
14.75993400000000	-6.99079000000000	696.07978900000001	47.57857900000000	0.25234500000000	0.00000000000000	0.11750700000000	0.00000000000000	0.00000000000000	0.00000000000000	0.00000000000000	0.00000000000000	0.00000000000000	0.00000000000000	26.39770900000000	0.00000000000000	0.00000000000000	0.00000000000000	0.00000000000000	
14.76160600000000	-7.71023100000000	697.24201400000004	47.62126800000000	0.25154800000000	0.00000000000000	0.11750000000000	0.00000000000000	0.00000000000000	0.00000000000000	0.00000000000000	0.00000000000000	0.00000000000000	0.00000000000000	26.54546700000000	0.00000000000000	0.00000000000000	0.00000000000000	0.00000000000000	
14.76327600000000	-8.44137500000000	698.45131700000002	47.66482300000000	0.25075300000000	0.00000000000000	0.11749200000000	0.00000000000000	0.00000000000000	0.00000000000000	0.00000000000000	0.00000000000000	0.00000000000000	0.00000000000000	26.69697200000000	0.00000000000000	0.00000000000000	0.00000000000000	0.00000000000000	
14.76494100000000	-9.18389200000000	699.70766000000003	47.70924100000000	0.24995900000000	0.00000000000000	0.11748400000000	0.00000000000000	0.00000000000000	0.00000000000000	0.00000000000000	0.00000000000000	0.00000000000000	0.00000000000000	26.85204000000000	0.00000000000000	0.00000000000000	0.00000000000000	0.00000000000000	
14.76660600000000	-9.93741100000000	701.01099599999998	47.75454000000000	0.24916600000000	0.00000000000000	0.11747500000000	0.00000000000000	0.00000000000000	0.00000000000000	0.00000000000000	0.00000000000000	0.00000000000000	0.00000000000000	27.01048700000000	0.00000000000000	0.00000000000000	0.00000000000000	0.00000000000000	
14.76827100000000	-10.70152500000000	702.36125900000002	47.80075800000000	0.24837200000000	0.00000000000000	0.11746500000000	0.00000000000000	0.00000000000000	0.00000000000000	0.00000000000000	0.00000000000000	0.00000000000000	0.00000000000000	27.17213100000000	0.00000000000000	0.00000000000000	0.00000000000000	0.00000000000000	
14.76993500000000	-11.47579000000000	703.75836100000004	47.84794900000000	0.24757600000000	0.00000000000000	0.11745500000000	0.00000000000000	0.00000000000000	0.00000000000000	0.00000000000000	0.00000000000000	0.00000000000000	0.00000000000000	27.33679000000000	0.00000000000000	0.00000000000000	0.00000000000000	0.00000000000000	
14.77160200000000	-12.25972600000000	705.20218399999999	47.89618900000000	0.24677800000000	0.00000000000000	0.11744500000000	0.00000000000000	0.00000000000000	0.00000000000000	0.00000000000000	0.00000000000000	0.00000000000000	0.00000000000000	27.50428300000000	0.00000000000000	0.00000000000000	0.00000000000000	0.00000000000000	
14.77327400000000	-13.05282000000000	706.69257500000003	47.94556900000000	0.24597800000000	0.00000000000000	0.11743500000000	0.00000000000000	0.00000000000000	0.00000000000000	0.00000000000000	0.00000000000000	0.00000000000000	0.00000000000000	27.67443200000000	0.00000000000000	0.00000000000000	0.00000000000000	0.00000000000000	
14.77494100000000	-13.85452400000000	708.22933999999998	47.99620000000000	0.24517400000000	0.00000000000000	0.11742500000000	0.00000000000000	0.00000000000000	0.00000000000000	0.00000000000000	0.00000000000000	0.00000000000000	0.00000000000000	27.84705700000000	0.00000000000000	0.00000000000000	0.00000000000000	0.00000000000000	
14.77660700000000	-14.66425600000000	709.81223599999998	48.04820700000000	0.24436500000000	0.00000000000000	0.11741400000000	0.00000000000000	0.00000000000000	0.00000000000000	0.00000000000000	0.00000000000000	0.00000000000000	0.00000000000000	28.02198100000000	0.00000000000000	0.00000000000000	0.00000000000000	0.00000000000000	
14.77827600000000	-15.48140500000000	711.44096800000000	48.10173200000000	0.24355200000000	0.00000000000000	0.11740400000000	0.00000000000000	0.00000000000000	0.00000000000000	0.00000000000000	0.00000000000000	0.00000000000000	0.00000000000000	28.19902900000000	0.00000000000000	0.00000000000000	0.00000000000000	0.00000000000000	
14.77993800000000	-16.30532900000000	713.11518000000001	48.15693300000000	0.24273400000000	0.00000000000000	0.11739400000000	0.00000000000000	0.00000000000000	0.00000000000000	0.00000000000000	0.00000000000000	0.00000000000000	0.00000000000000	28.37802500000000	0.00000000000000	0.00000000000000	0.00000000000000	0.00000000000000	
14.78160100000000	-17.13535700000000	714.83445200000006	48.21398200000000	0.24191000000000	0.00000000000000	0.11738500000000	0.00000000000000	0.00000000000000	0.00000000000000	0.00000000000000	0.00000000000000	0.00000000000000	0.00000000000000	28.55879500000000	0.00000000000000	0.00000000000000	0.00000000000000	0.00000000000000	
14.78327100000000	-17.97079100000000	716.59829300000001	48.27306300000000	0.24108000000000	0.00000000000000	0.11737600000000	0.00000000000000	0.00000000000000	0.00000000000000	0.00000000000000	0.00000000000000	0.00000000000000	0.00000000000000	28.74116700000000	0.00000000000000	0.00000000000000	0.00000000000000	0.00000000000000	
14.78493500000000	-18.81090900000000	718.40613499999995	48.33437500000000	0.24024400000000	0.00000000000000	0.11736700000000	0.00000000000000	0.00000000000000	0.00000000000000	0.00000000000000	0.00000000000000	0.00000000000000	0.00000000000000	28.92496700000000	0.00000000000000	0.00000000000000	0.00000000000000	0.00000000000000	
14.78660400000000	-19.65496100000000	720.25732800000003	48.39812800000000	0.23940100000000	0.00000000000000	0.11735900000000	0.00000000000000	0.00000000000000	0.00000000000000	0.00000000000000	0.00000000000000	0.00000000000000	0.00000000000000	29.11002500000000	0.00000000000000	0.00000000000000	0.00000000000000	0.00000000000000	
14.78827000000000	-20.50218000000000	722.15113799999995	48.46454300000000	0.23855100000000	0.00000000000000	0.11735200000000	0.00000000000000	0.00000000000000	0.00000000000000	0.00000000000000	0.00000000000000	0.00000000000000	0.00000000000000	29.29617200000000	0.00000000000000	0.00000000000000	0.00000000000000	0.00000000000000	
14.78993600000000	-21.35177600000000	724.08673799999997	48.53385000000000	0.23769500000000	0.00000000000000	0.11734600000000	0.00000000000000	0.00000000000000	0.00000000000000	0.00000000000000	0.00000000000000	0.00000000000000	0.00000000000000	29.48323900000000	0.00000000000000	0.00000000000000	0.00000000000000	0.00000000000000	
14.79160500000000	-22.20293800000000	726.06320600000004	48.60628900000000	0.23683200000000	0.00000000000000	0.11734000000000	0.00000000000000	0.00000000000000	0.00000000000000	0.00000000000000	0.00000000000000	0.00000000000000	0.00000000000000	29.67105700000000	0.00000000000000	0.00000000000000	0.00000000000000	0.00000000000000	
14.79326800000000	-23.05484400000000	728.07952299999999	48.68210500000000	0.23596300000000	0.00000000000000	0.11733600000000	0.00000000000000	0.00000000000000	0.00000000000000	0.00000000000000	0.00000000000000	0.00000000000000	0.00000000000000	29.85946000000000	0.00000000000000	0.00000000000000	0.00000000000000	0.00000000000000	
14.79493900000000	-23.90665200000000	730.13456299999996	48.76155400000000	0.23508700000000	0.00000000000000	0.11733300000000	0.00000000000000	0.00000000000000	0.00000000000000	0.00000000000000	0.00000000000000	0.00000000000000	0.00000000000000	30.04828300000000	0.00000000000000	0.00000000000000	0.00000000000000	0.00000000000000	
14.79660300000000	-24.75751000000000	732.22709899999995	48.84489200000000	0.23420400000000	0.00000000000000	0.11733000000000	0.00000000000000	0.00000000000000	0.00000000000000	0.00000000000000	0.00000000000000	0.00000000000000	0.00000000000000	30.23735900000000	0.00000000000000	0.00000000000000	0.00000000000000	0.00000000000000	
